<svg id="Layer_1" data-name="Layer 1" xmlns="http://www.w3.org/2000/svg" viewBox="0 0 512 512"><title>dollar-bill-glyph</title><path d="M271.2,272.06a24.79,24.79,0,0,0-5.35-3.67c-2-1-4.07-1.94-6.19-2.77l-.11,35.5a24,24,0,0,0,6.55-2.12,18.54,18.54,0,0,0,5.33-3.73,16.24,16.24,0,0,0,3.54-5.21,16.46,16.46,0,0,0,1.28-6.67,14.08,14.08,0,0,0-1.39-6.48A16,16,0,0,0,271.2,272.06Z" fill="#212121"/><path d="M245.74,212.46a16.55,16.55,0,0,0-4.86,3.13,15.28,15.28,0,0,0-3.26,4.58,13.41,13.41,0,0,0-1.25,6,17,17,0,0,0,1.27,6.79,16.58,16.58,0,0,0,3.45,5,22.42,22.42,0,0,0,5,3.73,58.74,58.74,0,0,0,5.9,2.94l-.11-33.75A23.81,23.81,0,0,0,245.74,212.46Z" fill="#212121"/><path d="M256,172.48A83.52,83.52,0,1,0,339.52,256,83.52,83.52,0,0,0,256,172.48Zm33,118.08a26.77,26.77,0,0,1-6.94,9,33.38,33.38,0,0,1-10.19,5.85,55.4,55.4,0,0,1-12.3,3v11.79l-7.39,1.56-.1-12.81h-.81a83.86,83.86,0,0,1-9.07-.62,44.79,44.79,0,0,1-10.1-2.46,22.85,22.85,0,0,1-8.21-5.29,12.38,12.38,0,0,1-3.38-9.08,8.16,8.16,0,0,1,3.58-7,11.5,11.5,0,0,1,3.74-1.67,15.89,15.89,0,0,1,4.34-.58,29.86,29.86,0,0,1,4.31.31v3c0,5.1,1.32,9,3.95,11.52s6.51,4,11.65,4.37V263.29q-5.94-2.25-11.48-4.94a43.57,43.57,0,0,1-9.8-6.33,29.68,29.68,0,0,1-6.82-8.63,25.34,25.34,0,0,1-2.56-11.71,26.69,26.69,0,0,1,2.47-11.79,24.57,24.57,0,0,1,6.62-8.4,30.73,30.73,0,0,1,9.68-5.27,50.64,50.64,0,0,1,11.69-2.5V191.21l8.1-1-.1,13.15c2.46.08,5.33.29,8.61.67a37.79,37.79,0,0,1,9.32,2.25,21.32,21.32,0,0,1,7.46,4.77,11.17,11.17,0,0,1,3,8.1,7.29,7.29,0,0,1-1,4,9.07,9.07,0,0,1-2.67,2.75,11.79,11.79,0,0,1-3.7,1.56,17.54,17.54,0,0,1-4.18.52,29.44,29.44,0,0,1-4.23-.31v-2.9c0-4.08-1.16-7.27-3.52-9.56a16.65,16.65,0,0,0-9.08-4.38l-.1,36.21c4.18,1.52,8.17,3.13,12,4.88a46.67,46.67,0,0,1,10.15,6.17,27,27,0,0,1,7,8.33,23.74,23.74,0,0,1,2.64,11.5A28.83,28.83,0,0,1,289,290.56Z" fill="#212121"/><path d="M503.71,132.92H8.28A8.31,8.31,0,0,0,0,141.19V370.81a8.3,8.3,0,0,0,8.28,8.27H503.71a8.29,8.29,0,0,0,8.29-8.27V141.19A8.3,8.3,0,0,0,503.71,132.92ZM487.18,315.79a48.71,48.71,0,0,0-43.06,38.48H67.9a48.71,48.71,0,0,0-43.07-38.48V196.23A48.71,48.71,0,0,0,67.9,157.75H444.12a48.72,48.72,0,0,0,43.06,38.46Z" fill="#212121"/><path d="M120.5,231.58a29,29,0,1,0,29,29A29,29,0,0,0,120.5,231.58Z" fill="#212121"/><path d="M391.5,231.58a29,29,0,1,0,29,29A29,29,0,0,0,391.5,231.58Z" fill="#212121"/></svg>