<svg xmlns="http://www.w3.org/2000/svg" data-name="Layer 1" viewBox="0 0 32 32"><path d="M15.5,15h1a1,1,0,0,1,1,1,.5.5,0,0,0,1,0,2.006,2.006,0,0,0-2-2v-.5a.5.5,0,0,0-1,0V14a2,2,0,0,0,0,4h1a1,1,0,0,1,0,2h-1a1,1,0,0,1-1-1,.5.5,0,0,0-1,0,2.006,2.006,0,0,0,2,2v.5a.5.5,0,0,0,1,0V21a2,2,0,0,0,0-4h-1a1,1,0,0,1,0-2ZM31.64,8.421a.486.486,0,0,0-.079-.254c0-.006,0-.012,0-.018V8.14a2.428,2.428,0,0,0-.44-1.11L27.51,1.97a2.3,2.3,0,0,0-.77-.69.443.443,0,0,0-.11-.08c-.01,0-.02-.01-.03-.01A2.445,2.445,0,0,0,25.47.92H6.53a2.423,2.423,0,0,0-1.03.23.281.281,0,0,0-.062.028.473.473,0,0,0-.072.027c-.006,0-.009.01-.015.014h0a2.443,2.443,0,0,0-.85.75L.89,7.03a2.392,2.392,0,0,0-.44,1.1c0,.008,0,.016,0,.023a.449.449,0,0,0-.018.509c0,.006,0,.012,0,.018A2.431,2.431,0,0,0,.82,9.83L14.74,31.39a1.5,1.5,0,0,0,2.52,0L31.19,9.83a2.4,2.4,0,0,0,.39-1.17s0-.009,0-.013A.488.488,0,0,0,31.64,8.421ZM26.55,2.38a1.15,1.15,0,0,1,.14.17l3.62,5.06a1.343,1.343,0,0,1,.17.31H23.415l3.126-5.548Zm-1.08-.46a.914.914,0,0,1,.17.01h0L22.456,7.586,17.04,1.92ZM20.75,13.08a6.457,6.457,0,0,0-9.23-.27L10.49,8.921H21.91Zm.75,4.42A5.485,5.485,0,0,1,16,23a5.408,5.408,0,0,1-1.85-.32,5.214,5.214,0,0,1-1.2-.61,5.48,5.48,0,0,1-1.87-7.02,5.306,5.306,0,0,1,.74-1.12,5.489,5.489,0,0,1,8.61.32,4.919,4.919,0,0,1,.69,1.25A5.313,5.313,0,0,1,21.5,17.5Zm-.11-9.58H10.96l1.22-1.359L16.01,2.3Zm-14.86-6H15L9.912,7.588,6.4,1.93A.591.591,0,0,1,6.53,1.92Zm-4.99,6a1.018,1.018,0,0,1,.16-.31L5.31,2.55a1.679,1.679,0,0,1,.175-.2L8.942,7.921H1.54Zm.12,1.37a1.375,1.375,0,0,1-.169-.369H9.45l1.28,4.8A6.354,6.354,0,0,0,9.5,17.5a6.509,6.509,0,0,0,3.81,5.91l1.78,6.68ZM16.08,29.91l-1.63-6.1A6.15,6.15,0,0,0,16,24a6.615,6.615,0,0,0,1.79-.25ZM30.35,9.29,17.18,29.67l1.78-6.39a6.49,6.49,0,0,0,2.56-9.21l1.43-5.149h7.57A1.373,1.373,0,0,1,30.35,9.29Z"/></svg>