<svg xmlns="http://www.w3.org/2000/svg" data-name="Layer 1" viewBox="0 0 32 32"><path d="M16,3a.5.5,0,0,0,.5-.5V.5a.5.5,0,0,0-1,0v2A.5.5,0,0,0,16,3ZM9.86,4.636a.5.5,0,1,0,.865-.5l-1-1.732a.5.5,0,1,0-.865.5ZM16,6.5A6.5,6.5,0,1,0,22.5,13,6.508,6.508,0,0,0,16,6.5Zm0,12A5.5,5.5,0,1,1,21.5,13,5.507,5.507,0,0,1,16,18.5ZM21.5,4.653a.5.5,0,0,0,.683-.183l1-1.732a.5.5,0,1,0-.865-.5l-1,1.732A.5.5,0,0,0,21.5,4.653ZM6.678,7.94l-1.731-1a.5.5,0,0,0-.5.866l1.731,1a.5.5,0,0,0,.5-.866ZM15.5,10.5h1a1,1,0,0,1,1,1,.5.5,0,0,0,1,0,2,2,0,0,0-2-2V9a.5.5,0,0,0-1,0v.5a2,2,0,0,0,0,4h1a1,1,0,0,1,0,2h-1a1,1,0,0,1-1-1,.5.5,0,0,0-1,0,2,2,0,0,0,2,2V17a.5.5,0,0,0,1,0v-.5a2,2,0,0,0,0-4h-1a1,1,0,0,1,0-2Zm6.483-4.221a9.064,9.064,0,0,0-7.072-2.215A8.992,8.992,0,0,0,9.382,19.088a11.382,11.382,0,0,1,2.772,6.384l.038.308a1.463,1.463,0,0,0,.2,1.72A1.486,1.486,0,0,0,13,29.908V30.5A1.5,1.5,0,0,0,14.5,32h3A1.5,1.5,0,0,0,19,30.5v-.592a1.486,1.486,0,0,0,.61-2.408,1.463,1.463,0,0,0,.2-1.722l.06-.506a12.342,12.342,0,0,1,2.982-6.436,8.993,8.993,0,0,0-.865-12.557ZM18,30.5a.5.5,0,0,1-.5.5h-3a.5.5,0,0,1-.5-.5V30h4Zm.5-1.5h-5a.5.5,0,0,1,0-1h5a.5.5,0,0,1,0,1Zm0-2h-5a.5.5,0,0,1,0-1h5a.5.5,0,0,1,0,1Zm3.59-8.815a13.353,13.353,0,0,0-3.2,6.873A1.48,1.48,0,0,0,18.5,25h-5a1.479,1.479,0,0,0-.4.061,12.279,12.279,0,0,0-2.984-6.65,8,8,0,1,1,11.973-.226ZM27.9,7.835a.5.5,0,0,0-.683-.183l-1.732,1a.5.5,0,0,0,.5.866l1.732-1A.5.5,0,0,0,27.9,7.835Z"/></svg>