<svg xmlns="http://www.w3.org/2000/svg" data-name="Layer 1" viewBox="0 0 32 32"><path d="M28.5,10H26.375A12.014,12.014,0,0,0,22,5.614V3.5A3.5,3.5,0,0,0,18.5,0h-5A3.5,3.5,0,0,0,10,3.5V5.627A11.989,11.989,0,0,0,5.626,10H3.5A3.5,3.5,0,0,0,0,13.5v5A3.5,3.5,0,0,0,3.5,22H5.628A11.983,11.983,0,0,0,10,26.372V28.5A3.5,3.5,0,0,0,13.5,32h5A3.5,3.5,0,0,0,22,28.5V26.373A11.98,11.98,0,0,0,26.372,22H28.5A3.5,3.5,0,0,0,32,18.5v-5A3.5,3.5,0,0,0,28.5,10ZM11,5.5v-2A2.5,2.5,0,0,1,13.5,1h5A2.5,2.5,0,0,1,21,3.5V7H19V5.5a.493.493,0,0,0-.034-.167A2.94,2.94,0,0,0,19,5a3,3,0,0,0-6,0,2.94,2.94,0,0,0,.034.333A.493.493,0,0,0,13,5.5V7H11ZM21,8a1,1,0,0,1-2,0ZM18,5a2,2,0,1,1-2-2A2,2,0,0,1,18,5ZM13,8a1,1,0,0,1-2,0ZM5.788,21H3.5A2.5,2.5,0,0,1,1,18.5v-5A2.5,2.5,0,0,1,3.5,11H7v2H5.5a.493.493,0,0,0-.167.034A2.94,2.94,0,0,0,5,13a3,3,0,0,0,0,6,2.94,2.94,0,0,0,.333-.034A.493.493,0,0,0,5.5,19H7v2H6.005A.494.494,0,0,0,5.788,21ZM7,16a2,2,0,1,1-2-2A2,2,0,0,1,7,16ZM21,26.5v2A2.5,2.5,0,0,1,18.5,31h-5A2.5,2.5,0,0,1,11,28.5V26.214a.493.493,0,0,0,0-.224V25h2v1.5a.493.493,0,0,0,.034.167A2.94,2.94,0,0,0,13,27a3,3,0,0,0,6,0,2.94,2.94,0,0,0-.034-.333A.493.493,0,0,0,19,26.5V25h2ZM11,24a1,1,0,0,1,2,0Zm3,3a2,2,0,1,1,2,2A2,2,0,0,1,14,27Zm5-3a1,1,0,0,1,2,0Zm3,1.188V24a2,2,0,0,0-4,0v.78a2.953,2.953,0,0,0-4,0V24a2,2,0,0,0-4,0v1.188A10.957,10.957,0,0,1,6.812,22H8a2,2,0,0,0,0-4H7.22a2.953,2.953,0,0,0,0-4H8a2,2,0,0,0,0-4H6.812A10.97,10.97,0,0,1,10,6.812V8a2,2,0,0,0,4,0V7.22a2.953,2.953,0,0,0,4,0V8a2,2,0,0,0,4,0V6.81A10.983,10.983,0,0,1,25.19,10H24a2,2,0,0,0,0,4h.78a2.953,2.953,0,0,0,0,4H24a2,2,0,0,0,0,4h1.188A10.963,10.963,0,0,1,22,25.188ZM8,21V19a1,1,0,0,1,0,2Zm0-8V11a1,1,0,0,1,0,2Zm16-2v2a1,1,0,0,1,0-2Zm0,8v2a1,1,0,0,1,0-2Zm7-.5A2.5,2.5,0,0,1,28.5,21H26.213a.5.5,0,0,0-.22,0H25V19h1.5a.493.493,0,0,0,.167-.034A2.94,2.94,0,0,0,27,19a3,3,0,0,0,0-6,2.94,2.94,0,0,0-.333.034A.493.493,0,0,0,26.5,13H25V11h3.5A2.5,2.5,0,0,1,31,13.5ZM25,16a2,2,0,1,1,2,2A2,2,0,0,1,25,16Zm-9.5-2.5h1a1,1,0,0,1,1,1,.5.5,0,0,0,1,0,2,2,0,0,0-2-2V12a.5.5,0,0,0-1,0v.5a2,2,0,0,0,0,4h1a1,1,0,0,1,0,2h-1a1,1,0,0,1-1-1,.5.5,0,0,0-1,0,2,2,0,0,0,2,2V20a.5.5,0,0,0,1,0v-.5a2,2,0,0,0,0-4h-1a1,1,0,0,1,0-2Z"/></svg>