<svg xmlns="http://www.w3.org/2000/svg" data-name="Layer 1" viewBox="0 0 32 32"><path d="M16,4a6.5,6.5,0,1,0,6.5,6.5A6.508,6.508,0,0,0,16,4Zm0,12a5.5,5.5,0,1,1,5.5-5.5A5.507,5.507,0,0,1,16,16Zm-.5-8h1a1,1,0,0,1,1,1,.5.5,0,0,0,1,0,2,2,0,0,0-2-2V6.5a.5.5,0,0,0-1,0V7a2,2,0,0,0,0,4h1a1,1,0,0,1,0,2h-1a1,1,0,0,1-1-1,.5.5,0,0,0-1,0,2,2,0,0,0,2,2v.5a.5.5,0,0,0,1,0V14a2,2,0,0,0,0-4h-1a1,1,0,0,1,0-2Zm9.581,15.606a8.648,8.648,0,0,1,.585-7.354A11,11,0,1,0,5,11c0,.192.006.382.018.572a6.914,6.914,0,0,1-.366,2.557L3.7,17.034A1.5,1.5,0,0,0,5.129,19H6.75v2.25a4.5,4.5,0,0,0,4.5,4.5h2.572a1.493,1.493,0,0,1,1.483,1.272l.525,3.418a1.5,1.5,0,0,0,1.913,1.209L25.6,29.293a1.506,1.506,0,0,0,.923-.786,1.491,1.491,0,0,0,.04-1.2Zm.537,4.467a.5.5,0,0,1-.309.262l-7.853,2.356a.5.5,0,0,1-.638-.4l-.525-3.418a2.487,2.487,0,0,0-2.472-2.12H11.25a3.5,3.5,0,0,1-3.5-3.5V18.5a.5.5,0,0,0-.5-.5H5.129a.5.5,0,0,1-.476-.655L5.6,14.439a7.9,7.9,0,0,0,.413-2.927C6.006,11.342,6,11.172,6,11A9.994,9.994,0,0,1,16.024,1a10.4,10.4,0,0,1,1.876.171,9.993,9.993,0,0,1,6.887,14.6,9.646,9.646,0,0,0-.634,8.2l1.479,3.7A.485.485,0,0,1,25.618,28.073Z"/></svg>