<svg xmlns="http://www.w3.org/2000/svg" data-name="Layer 1" viewBox="0 0 32 32"><path d="M12.5,9h-1a1,1,0,0,1-1-1,.5.5,0,0,0-1,0,2,2,0,0,0,2,2v.5a.5.5,0,0,0,1,0V10a2,2,0,0,0,0-4h-1a1,1,0,0,1,0-2h1a1,1,0,0,1,1,1,.5.5,0,0,0,1,0,2,2,0,0,0-2-2V2.5a.5.5,0,0,0-1,0V3a2,2,0,0,0,0,4h1a1,1,0,0,1,0,2ZM12,13A6.5,6.5,0,1,0,5.5,6.5,6.508,6.508,0,0,0,12,13ZM12,1A5.5,5.5,0,1,1,6.5,6.5,5.507,5.507,0,0,1,12,1ZM30.5,17a.5.5,0,0,0-.5.5v1.865l-9.665-8.736a.5.5,0,0,0-.65-.017l-7.676,6.236L1.866,8.121a.5.5,0,0,0-.652.758l10.46,9a.5.5,0,0,0,.642.009l7.667-6.23L29.212,20H27.5a.5.5,0,0,0,0,1h3a.5.5,0,0,0,.467-.336.487.487,0,0,0,.013-.066.479.479,0,0,0,.02-.1v-3A.5.5,0,0,0,30.5,17Zm-25-1h-3A1.5,1.5,0,0,0,1,17.5v14a.5.5,0,0,0,.5.5h5a.5.5,0,0,0,.5-.5v-14A1.5,1.5,0,0,0,5.5,16ZM6,31H2V17.5a.5.5,0,0,1,.5-.5h3a.5.5,0,0,1,.5.5ZM21.5,16h-3A1.5,1.5,0,0,0,17,17.5v14a.5.5,0,0,0,.5.5h5a.5.5,0,0,0,.5-.5v-14A1.5,1.5,0,0,0,21.5,16ZM22,31H18V17.5a.5.5,0,0,1,.5-.5h3a.5.5,0,0,1,.5.5Zm7.5-8h-3A1.5,1.5,0,0,0,25,24.5v7a.5.5,0,0,0,.5.5h5a.5.5,0,0,0,.5-.5v-7A1.5,1.5,0,0,0,29.5,23Zm.5,8H26V24.5a.5.5,0,0,1,.5-.5h3a.5.5,0,0,1,.5.5ZM13.5,20h-3A1.5,1.5,0,0,0,9,21.5v10a.5.5,0,0,0,.5.5h5a.5.5,0,0,0,.5-.5v-10A1.5,1.5,0,0,0,13.5,20ZM14,31H10V21.5a.5.5,0,0,1,.5-.5h3a.5.5,0,0,1,.5.5Z"/></svg>