<svg xmlns="http://www.w3.org/2000/svg" data-name="Layer 1" viewBox="0 0 32 32"><path d="M8.29,12.25H9.71a1.628,1.628,0,0,1,1.62,1.63.508.508,0,0,0,.5.5.5.5,0,0,0,.5-.5,2.625,2.625,0,0,0-2.62-2.63H9.5v-.92a.5.5,0,0,0-1,0v.92H8.29a2.625,2.625,0,0,0,0,5.25H9.71a1.625,1.625,0,0,1,0,3.25H8.29a1.628,1.628,0,0,1-1.62-1.63.508.508,0,0,0-.5-.5.5.5,0,0,0-.5.5,2.625,2.625,0,0,0,2.62,2.63H8.5v.92a.5.5,0,0,0,1,0v-.92h.21a2.625,2.625,0,0,0,0-5.25H8.29a1.625,1.625,0,0,1,0-3.25ZM26,9H25a1,1,0,0,1-1-1,.5.5,0,0,0-1,0,2.006,2.006,0,0,0,2,2v.5a.5.5,0,0,0,1,0V10a2,2,0,0,0,0-4H25a1,1,0,0,1,0-2h1a1,1,0,0,1,1,1,.5.5,0,0,0,1,0,2.006,2.006,0,0,0-2-2V2.5a.5.5,0,0,0-1,0V3a2,2,0,0,0,0,4h1a1,1,0,0,1,0,2Zm-.5,10a6.5,6.5,0,0,0-5.9,3.79l-3.01-1.97a8.953,8.953,0,0,0,.21-9.3L19.85,9.7a6.439,6.439,0,1,0-.43-.91l-3.17,1.89a9,9,0,1,0-.24,10.96l3.23,2.11A6.323,6.323,0,0,0,19,25.5,6.5,6.5,0,1,0,25.5,19Zm0-18a5.5,5.5,0,1,1-5.02,7.74A5.389,5.389,0,0,1,20,6.5,5.51,5.51,0,0,1,25.5,1ZM15.48,20.68l-.01.01c0,.01-.01.01-.01.02a8.006,8.006,0,1,1,.2-9.12c0,.01.01.01.01.02s.02.02.02.03A7.855,7.855,0,0,1,17,16,8,8,0,0,1,15.48,20.68ZM25.5,31A5.5,5.5,0,1,1,31,25.5,5.51,5.51,0,0,1,25.5,31ZM25,23h1a1,1,0,0,1,1,1,.5.5,0,0,0,1,0,2.006,2.006,0,0,0-2-2v-.5a.5.5,0,0,0-1,0V22a2,2,0,0,0,0,4h1a1,1,0,0,1,0,2H25a1,1,0,0,1-1-1,.5.5,0,0,0-1,0,2.006,2.006,0,0,0,2,2v.5a.5.5,0,0,0,1,0V29a2,2,0,0,0,0-4H25a1,1,0,0,1,0-2Z"/></svg>