<svg xmlns="http://www.w3.org/2000/svg" data-name="Layer 1" viewBox="0 0 32 32"><path d="M16,15a6.5,6.5,0,1,0,6.5,6.5A6.508,6.508,0,0,0,16,15Zm0,12a5.5,5.5,0,1,1,5.5-5.5A5.507,5.507,0,0,1,16,27Zm9.519-13.011-2.653-2.831c0-.005-.012-.007-.017-.012A1.482,1.482,0,0,0,23,10.5,1.5,1.5,0,0,0,21.5,9h-.249l2.271-5.424a1.5,1.5,0,0,0-2.06-1.988l-1.389.756a1.5,1.5,0,0,1-1.778-.256l-.527-.528a2.5,2.5,0,0,0-3.535,0l-.527.528a1.508,1.508,0,0,1-1.779.256l-1.388-.756A1.5,1.5,0,0,0,8.465,3.545L10.749,9H10.5a1.494,1.494,0,0,0-.918,2.677L7.208,13.911A13.538,13.538,0,0,0,3.379,27.076,6.49,6.49,0,0,0,9.685,32H22.315a6.49,6.49,0,0,0,6.306-4.923l.146-.581A13.446,13.446,0,0,0,25.519,13.989ZM9.373,3.128a.5.5,0,0,1,.687-.663l1.387.756A2.515,2.515,0,0,0,14.412,2.8l.527-.528a1.5,1.5,0,0,1,2.121,0l.527.528a2.513,2.513,0,0,0,2.965.427l1.388-.756a.484.484,0,0,1,.586.079.5.5,0,0,1,.087.614L20.167,9H11.833ZM10.5,10h11a.5.5,0,0,1,0,1h-11a.5.5,0,0,1,0-1ZM27.8,26.253l-.146.581A5.491,5.491,0,0,1,22.315,31H9.685a5.51,5.51,0,0,1-5.351-4.226A12.512,12.512,0,0,1,7.894,14.64L10.7,12H22.283l2.506,2.672A12.449,12.449,0,0,1,27.8,26.253ZM15.5,19h1a1,1,0,0,1,1,1,.5.5,0,0,0,1,0,2,2,0,0,0-2-2v-.5a.5.5,0,0,0-1,0V18a2,2,0,0,0,0,4h1a1,1,0,0,1,0,2h-1a1,1,0,0,1-1-1,.5.5,0,0,0-1,0,2,2,0,0,0,2,2v.5a.5.5,0,0,0,1,0V25a2,2,0,0,0,0-4h-1a1,1,0,0,1,0-2Z"/></svg>