<svg xmlns="http://www.w3.org/2000/svg" data-name="Layer 1" viewBox="0 0 32 32"><path d="M29.886,25.571l-1.647-1.906a.5.5,0,0,0-.378-.173H25.14a.5.5,0,0,0-.378.173l-1.647,1.906a.5.5,0,0,0,.019.675l3.008,3.109a.5.5,0,0,0,.719,0l3.008-3.109A.5.5,0,0,0,29.886,25.571ZM26.5,28.289,24.169,25.88l1.2-1.388h2.264l1.2,1.388ZM16.5,10.5V10a2,2,0,0,0,0-4h-1a1,1,0,0,1,0-2h1a1,1,0,0,1,1,1,.5.5,0,0,0,1,0,2,2,0,0,0-2-2V2.5a.5.5,0,0,0-1,0V3a2,2,0,0,0,0,4h1a1,1,0,0,1,0,2h-1a1,1,0,0,1-1-1,.5.5,0,0,0-1,0,2,2,0,0,0,2,2v.5a.5.5,0,0,0,1,0ZM5.146,19.853a.5.5,0,0,0,.708,0l1.413-1.413a.5.5,0,0,0-.707-.707L6,18.293V16.5A1.5,1.5,0,0,1,7.5,15h17A1.5,1.5,0,0,1,26,16.5v1.793l-.561-.561a.5.5,0,0,0-.707.707l1.413,1.413a.5.5,0,0,0,.708,0l1.413-1.413a.5.5,0,0,0-.707-.707L27,18.293V16.5A2.5,2.5,0,0,0,24.5,14h-8V12.975a6.5,6.5,0,1,0-1,0V14h-8A2.5,2.5,0,0,0,5,16.5v1.793l-.561-.561a.5.5,0,0,0-.707.707ZM10.5,6.5A5.5,5.5,0,1,1,16,12,5.506,5.506,0,0,1,10.5,6.5ZM5.5,21A5.5,5.5,0,1,0,11,26.5,5.507,5.507,0,0,0,5.5,21Zm0,10A4.5,4.5,0,1,1,10,26.5,4.5,4.5,0,0,1,5.5,31Zm21-10A5.5,5.5,0,1,0,32,26.5,5.507,5.507,0,0,0,26.5,21Zm0,10A4.5,4.5,0,1,1,31,26.5,4.5,4.5,0,0,1,26.5,31ZM5.219,23.568l-3,2.035a.5.5,0,0,0,.562.828L3,26.283v2.735a.5.5,0,0,0,.5.5h4a.5.5,0,0,0,.5-.5V26.283l.219.149a.5.5,0,0,0,.562-.828l-3-2.035A.5.5,0,0,0,5.219,23.568ZM7,28.518H4V25.6l1.5-1.018L7,25.6Z"/></svg>