<svg xmlns="http://www.w3.org/2000/svg" data-name="Layer 1" viewBox="0 0 32 32"><path d="M3.5,20h1a.5.5,0,0,0,0-1h-1a.5.5,0,0,0,0,1Zm0-4h1a.5.5,0,0,0,0-1h-1a.5.5,0,0,0,0,1Zm0,8h1a.5.5,0,0,0,0-1h-1a.5.5,0,0,0,0,1Zm13.561-4.412-.561.561V17.355a.5.5,0,0,0-1,0v2.793l-.561-.561a.5.5,0,0,0-.707.707l1.413,1.413a.5.5,0,0,0,.708,0l1.413-1.413a.5.5,0,0,0-.707-.707ZM29.5,11H25V5.5A2.5,2.5,0,0,0,22.5,3H22V1.5A1.5,1.5,0,0,0,20.5,0h-9A1.5,1.5,0,0,0,10,1.5V3H9.5A2.5,2.5,0,0,0,7,5.5V11H2.5A2.5,2.5,0,0,0,0,13.5v18a.5.5,0,0,0,.5.5h31a.5.5,0,0,0,.5-.5v-18A2.5,2.5,0,0,0,29.5,11ZM5,31H3V28.5a.5.5,0,0,1,.5-.5h1a.5.5,0,0,1,.5.5Zm2,0H6V28.5A1.5,1.5,0,0,0,4.5,27h-1A1.5,1.5,0,0,0,2,28.5V31H1V13.5A1.5,1.5,0,0,1,2.5,12H7ZM11,1.5a.5.5,0,0,1,.5-.5h9a.5.5,0,0,1,.5.5V3H11ZM15.5,31H12V25.5A1.5,1.5,0,0,1,13.5,24h2ZM20,31H16.5V24h2A1.5,1.5,0,0,1,20,25.5Zm4,0H21V25.5A2.5,2.5,0,0,0,18.5,23h-5A2.5,2.5,0,0,0,11,25.5V31H8V5.5A1.5,1.5,0,0,1,9.5,4h13A1.5,1.5,0,0,1,24,5.5Zm5,0H27V28.5a.5.5,0,0,1,.5-.5h1a.5.5,0,0,1,.5.5Zm2,0H30V28.5A1.5,1.5,0,0,0,28.5,27h-1A1.5,1.5,0,0,0,26,28.5V31H25V12h4.5A1.5,1.5,0,0,1,31,13.5ZM28.5,19h-1a.5.5,0,0,0,0,1h1a.5.5,0,0,0,0-1Zm0-4h-1a.5.5,0,0,0,0,1h1a.5.5,0,0,0,0-1Zm-12-.856h-1a1,1,0,0,1-1-1,.5.5,0,0,0-1,0,2,2,0,0,0,2,2v.5a.5.5,0,0,0,1,0v-.5a2,2,0,0,0,0-4h-1a1,1,0,0,1,0-2h1a1,1,0,0,1,1,1,.5.5,0,1,0,1,0,2,2,0,0,0-2-2v-.5a.5.5,0,0,0-1,0v.5a2,2,0,0,0,0,4h1a1,1,0,0,1,0,2Zm.134-9.115A7,7,0,0,0,13.658,18.6a.5.5,0,0,0,.332-.943,6,6,0,1,1,3.832.058.5.5,0,0,0,.152.977.516.516,0,0,0,.152-.023A7,7,0,0,0,16.634,5.029ZM28.5,23h-1a.5.5,0,0,0,0,1h1a.5.5,0,0,0,0-1Z"/></svg>