<svg xmlns="http://www.w3.org/2000/svg" data-name="Layer 1" viewBox="0 0 32 32"><path d="M28.5,23h-1v-.87a3.945,3.945,0,0,0,1.5-3.1V17.96A2.966,2.966,0,0,0,26.04,15H24.96A2.966,2.966,0,0,0,22,17.96v1.07a3.945,3.945,0,0,0,1.5,3.1V23h-1A3.5,3.5,0,0,0,19,26.5v4A1.5,1.5,0,0,0,20.5,32h10A1.5,1.5,0,0,0,32,30.5v-4A3.5,3.5,0,0,0,28.5,23ZM23,19.03V17.96A1.963,1.963,0,0,1,24.96,16h1.08A1.963,1.963,0,0,1,28,17.96v1.07a2.957,2.957,0,0,1-1.81,2.73,1.742,1.742,0,0,1-1.38,0A2.957,2.957,0,0,1,23,19.03Zm3.5,3.68V23a1,1,0,0,1-2,0v-.29a2.6,2.6,0,0,0,2,0ZM31,30.5a.5.5,0,0,1-.5.5H29V28.5a.5.5,0,0,0-1,0V31H23V28.5a.5.5,0,0,0-1,0V31H20.5a.5.5,0,0,1-.5-.5v-4A2.5,2.5,0,0,1,22.5,24h1.278a1.982,1.982,0,0,0,3.443,0H28.5A2.5,2.5,0,0,1,31,26.5ZM9.5,23h-1v-.87a3.945,3.945,0,0,0,1.5-3.1V17.96A2.966,2.966,0,0,0,7.04,15H5.96A2.966,2.966,0,0,0,3,17.96v1.07a3.945,3.945,0,0,0,1.5,3.1V23h-1A3.5,3.5,0,0,0,0,26.5v4A1.5,1.5,0,0,0,1.5,32h10A1.5,1.5,0,0,0,13,30.5v-4A3.5,3.5,0,0,0,9.5,23ZM4,19.03V17.96A1.963,1.963,0,0,1,5.96,16H7.04A1.963,1.963,0,0,1,9,17.96v1.07a2.957,2.957,0,0,1-1.81,2.73,1.742,1.742,0,0,1-1.38,0A2.957,2.957,0,0,1,4,19.03Zm3.5,3.68V23a1,1,0,0,1-2,0v-.29a2.6,2.6,0,0,0,2,0ZM12,30.5a.5.5,0,0,1-.5.5H10V28.5a.5.5,0,0,0-1,0V31H4V28.5a.5.5,0,0,0-1,0V31H1.5a.5.5,0,0,1-.5-.5v-4A2.5,2.5,0,0,1,3.5,24H4.778a1.982,1.982,0,0,0,3.443,0H9.5A2.5,2.5,0,0,1,12,26.5ZM15.5,4h1a1,1,0,0,1,1,1,.5.5,0,0,0,1,0,2.006,2.006,0,0,0-2-2V2.5a.5.5,0,0,0-1,0V3a2,2,0,0,0,0,4h1a1,1,0,0,1,0,2h-1a1,1,0,0,1-1-1,.5.5,0,0,0-1,0,2.006,2.006,0,0,0,2,2v.5a.5.5,0,0,0,1,0V10a2,2,0,0,0,0-4h-1a1,1,0,0,1,0-2Zm6.98,3V7c.007,0,.013,0,.02,0h1A1.5,1.5,0,0,1,25,8.5v3.8l-.561-.561a.5.5,0,0,0-.707.707l1.413,1.413a.5.5,0,0,0,.708,0l1.413-1.413a.5.5,0,0,0-.707-.707L26,12.3V8.5A2.5,2.5,0,0,0,23.5,6h-1c-.007,0-.013,0-.02,0V6A6.5,6.5,0,0,0,9.52,6H8.5A2.5,2.5,0,0,0,6,8.5v3.8l-.561-.561a.5.5,0,0,0-.707.707L6.146,13.86a.5.5,0,0,0,.708,0l1.413-1.413a.5.5,0,0,0-.707-.707L7,12.3V8.5A1.5,1.5,0,0,1,8.5,7H9.52A6.5,6.5,0,0,0,22.48,7ZM16,12a5.5,5.5,0,1,1,5.5-5.5A5.51,5.51,0,0,1,16,12Z"/></svg>