<svg xmlns="http://www.w3.org/2000/svg" data-name="Layer 1" viewBox="0 0 32 32"><path d="M9.5,7.5h1a1,1,0,0,1,1,1,.5.5,0,0,0,1,0,2,2,0,0,0-2-2V6a.5.5,0,0,0-1,0v.5a2,2,0,0,0,0,4h1a1,1,0,0,1,0,2h-1a1,1,0,0,1-1-1,.5.5,0,0,0-1,0,2,2,0,0,0,2,2V14a.5.5,0,0,0,1,0v-.5a2,2,0,0,0,0-4h-1a1,1,0,0,1,0-2ZM30.687,25.467l-7.218-7.218a2.494,2.494,0,0,0-2.359-.651l-2.384-2.384a.492.492,0,0,0-.143-.1A10,10,0,0,0,2.929,2.929,9.994,9.994,0,0,0,15.09,18.6a.493.493,0,0,0,.1.15L17.6,21.163a2.523,2.523,0,0,0-.052.5,2.482,2.482,0,0,0,.732,1.768L25.5,30.652a3.667,3.667,0,1,0,5.186-5.186ZM10,19A9,9,0,0,1,3.636,3.636,9,9,0,1,1,16.364,16.364,8.942,8.942,0,0,1,10,19Zm8.281.9-.263.263-2.108-2.109a10.1,10.1,0,0,0,1.161-.984,10.1,10.1,0,0,0,.963-1.134l2.105,2.1-1.044,1.045-.812.812Zm11.7,10.044a2.671,2.671,0,0,1-3.771,0L18.99,22.727a1.5,1.5,0,0,1,0-2.119l.816-.816.836-.836a1.5,1.5,0,0,1,2.122,0l7.218,7.218a2.666,2.666,0,0,1,0,3.771ZM14.95,5.05A7,7,0,1,0,17,10,6.954,6.954,0,0,0,14.95,5.05Zm-.707,9.192A6,6,0,1,1,16,10,5.961,5.961,0,0,1,14.243,14.243Z"/></svg>