<svg xmlns="http://www.w3.org/2000/svg" data-name="Layer 1" viewBox="0 0 32 32"><path d="M16,9a7,7,0,1,0,7,7A7.008,7.008,0,0,0,16,9Zm0,13a6,6,0,1,1,6-6A6.007,6.007,0,0,1,16,22Zm-.5-8.5h1a1,1,0,0,1,1,1,.5.5,0,0,0,1,0,2,2,0,0,0-2-2V12a.5.5,0,0,0-1,0v.5a2,2,0,0,0,0,4h1a1,1,0,0,1,0,2h-1a1,1,0,0,1-1-1,.5.5,0,0,0-1,0,2,2,0,0,0,2,2V20a.5.5,0,0,0,1,0v-.5a2,2,0,0,0,0-4h-1a1,1,0,0,1,0-2Zm15.763,2.273C28.64,10.608,22.363,7,16,7S3.36,10.608.737,15.773a.507.507,0,0,0,0,.453C3.36,21.393,9.637,25,16,25s12.64-3.607,15.263-8.773A.507.507,0,0,0,31.263,15.773ZM16,24c-5.812,0-11.758-3.351-14.252-8C4.242,11.351,10.188,8,16,8s11.758,3.351,14.252,8C27.758,20.649,21.813,24,16,24Z"/></svg>